Coordinates
version=1
nRows=16
nColumns=42
inDegrees=yes

Units are S.I. units (second, meters, Newtons, ...)
If the header above contains a line with 'inDegrees', this indicates whether rotational values are in degrees (yes) or radians (no).

endheader
time	pelvis_tilt	pelvis_list	pelvis_rotation	pelvis_tx	pelvis_ty	pelvis_tz	hip_flexion_r	hip_adduction_r	hip_rotation_r	knee_angle_r	knee_adduction_r	knee_angle_r_beta	ankle_angle_r	subtalar_angle_r	mtp_angle_r	hip_flexion_l	hip_adduction_l	hip_rotation_l	knee_angle_l	knee_adduction_l	knee_angle_l_beta	ankle_angle_l	subtalar_angle_l	mtp_angle_l	lumbar_extension	lumbar_bending	lumbar_rotation	arm_flex_r	arm_add_r	arm_rot_r	elbow_flex_r	pro_sup_r	wrist_flex_r	wrist_dev_r	arm_flex_l	arm_add_l	arm_rot_l	elbow_flex_l	pro_sup_l	wrist_flex_l	wrist_dev_l
      2.28000000	      5.50510161	      5.30703822	      9.72559926	     -0.46157222	      0.88017688	     -0.12271944	      2.18067541	     -7.32037066	    -31.45837423	     28.74583410	     -3.57860697	      0.50170945	     23.52878278	     38.14998914	     -7.62675833	     19.80647948	      7.48129474	      9.39621826	     60.35129538	     -3.87735368	      1.05332881	      2.23038106	      3.34644746	     -7.62675833	    -24.63916581	      0.62308058	     -5.91892672	      3.67872797	     -8.45085735	    -14.26539939	     47.97676072	     90.00000001	      0.00000000	      0.00000000	     16.01666231	    -12.20108285	     36.26451736	     53.78341556	     90.00000001	      0.00000000	      0.00000000
      2.29000000	      5.48838326	      5.32034114	      9.77972481	     -0.45893912	      0.87996353	     -0.12302568	      2.00390519	     -7.31802695	    -31.59983111	     28.78894267	     -3.62922379	      0.50246184	     23.73260567	     38.16607190	     -7.62323571	     20.45032818	      7.66050484	     10.27373330	     60.62775001	     -3.17255480	      1.05815386	      2.65303344	      3.26702987	     -7.62323571	    -24.65543874	      0.62282829	     -6.02815373	      3.63030184	     -8.54961212	    -13.63156191	     48.08353110	     90.00000001	      0.00000000	      0.00000000	     16.00602188	    -12.20355088	     36.06490505	     53.73343828	     90.00000001	      0.00000000	      0.00000000
      2.30000000	      5.49785330	      5.33084978	      9.80870123	     -0.45628043	      0.87978775	     -0.12329737	      1.79544645	     -7.30217650	    -31.71830293	     28.81777536	     -3.69149644	      0.50296506	     23.92867598	     38.18686515	     -7.62064539	     21.06264646	      7.79494614	     10.92638694	     60.80409007	     -2.62373311	      1.06123157	      3.04282689	      3.02418810	     -7.62064539	    -24.69620716	      0.60695930	     -6.13407608	      3.63340888	     -8.60974395	    -13.21010846	     48.19285793	     90.00000001	      0.00000000	      0.00000000	     15.98270101	    -12.21513317	     35.91647351	     53.69857935	     90.00000001	      0.00000000	      0.00000000
      2.31000000	      5.53282967	      5.38359672	      9.79394981	     -0.45360947	      0.87965205	     -0.12359936	      1.53460460	     -7.33438566	    -31.74249393	     28.77424416	     -3.69772886	      0.50220530	     23.97397069	     38.16494538	     -7.61983045	     21.65838513	      7.92813307	     11.01704018	     60.87732661	     -2.46047372	      1.06250979	      3.20346996	      2.92745434	     -7.61983045	    -24.79833063	      0.56080723	     -6.10697790	      3.60845402	     -8.59568415	    -13.10067824	     48.22807406	     90.00000001	      0.00000000	      0.00000000	     16.02014292	    -12.22670738	     35.84383267	     53.71546860	     90.00000001	      0.00000000	      0.00000000
      2.32000000	      5.56871651	      5.38565814	      9.72724146	     -0.45092159	      0.87953216	     -0.12380915	      1.33517389	     -7.30493210	    -31.62341971	     28.84679396	     -3.70989239	      0.50347153	     23.93492480	     37.99676820	     -7.61905661	     22.22567980	      7.93483373	     10.96592596	     60.78713219	     -2.35171734	      1.06093560	      3.31020946	      2.89832801	     -7.61905661	    -24.88810624	      0.54212515	     -6.04214751	      3.62095312	     -8.58570191	    -13.03982013	     48.29454212	     90.00000001	      0.00000000	      0.00000000	     16.00142249	    -12.25192902	     35.76687414	     53.74914088	     90.00000001	      0.00000000	      0.00000000
      2.33000000	      5.46630138	      5.38543767	      9.73930725	     -0.44830677	      0.87917609	     -0.12409262	      1.28591109	     -7.29006301	    -31.82373772	     28.88458445	     -3.87136406	      0.50413110	     24.52096777	     38.23403700	     -7.61293955	     22.91309292	      7.94997121	     11.65244433	     60.68138061	     -1.54289899	      1.05908989	      3.98432890	      1.27726781	     -7.61293955	    -24.80796673	      0.50934891	     -6.10235695	      3.46060516	     -8.81286162	    -11.87703900	     48.58787689	     90.00000001	      0.00000000	      0.00000000	     15.93369962	    -12.21300289	     35.26568804	     53.72286517	     90.00000001	      0.00000000	      0.00000000
      2.34000000	      5.46466127	      5.37143783	      9.67959583	     -0.44563392	      0.87898380	     -0.12426946	      1.10977941	     -7.24911237	    -31.72282863	     28.91438313	     -3.83609250	      0.50465119	     24.46561492	     38.03778064	     -7.61207151	     23.50712595	      7.82936580	     11.36290635	     60.37315907	     -1.48427125	      1.05371041	      4.11767825	      1.22137096	     -7.61207151	    -24.86103673	      0.48939853	     -6.02707766	      3.46520829	     -8.80125069	    -11.81998221	     48.65362713	     90.00000001	      0.00000000	      0.00000000	     15.95988319	    -12.24178027	     35.17425451	     53.77635539	     90.00000001	      0.00000000	      0.00000000
      2.35000000	      5.49014871	      5.37763615	      9.50982759	     -0.44276313	      0.87881184	     -0.12437621	      0.90969158	     -7.18195797	    -31.64935370	     28.85898689	     -3.98188440	      0.50368434	     24.74969096	     38.24006774	     -7.61022163	     24.01685894	      7.69506542	     10.32708987	     59.89065968	     -2.00675801	      1.04528920	      4.79207294	      0.58407075	     -7.61022163	    -24.90309820	      0.40312403	     -5.83765860	      3.41419552	     -8.81494005	    -11.57800302	     48.70404654	     90.00000001	      0.00000000	      0.00000000	     15.93804687	    -12.25848577	     35.01816750	     53.79001837	     90.00000001	      0.00000000	      0.00000000
      2.36000000	      5.47092878	      5.33669343	      9.46959720	     -0.44017200	      0.87851558	     -0.12456851	      0.78929695	     -7.10756729	    -31.43579864	     28.97062239	     -3.93605085	      0.50563275	     24.65014449	     37.88753732	     -7.60918936	     24.63525121	      7.48034844	      9.95677776	     59.43839216	     -1.91319706	      1.03739565	      4.86913027	      0.59588478	     -7.60918936	    -24.96942536	      0.40254143	     -5.76442653	      3.41131628	     -8.80954703	    -11.52203777	     48.79527040	     90.00000001	      0.00000000	      0.00000000	     15.93615342	    -12.28787974	     34.90666619	     53.86085319	     90.00000001	      0.00000000	      0.00000000
      2.37000000	      5.44670642	      5.37675284	      9.17209598	     -0.43709815	      0.87840371	     -0.12453670	      0.62873364	     -7.05816178	    -31.28291220	     28.79411958	     -4.12465956	      0.50255219	     25.05210175	     38.18068631	     -7.60746414	     25.02925328	      7.24666101	      8.17104673	     58.41121614	     -2.87957742	      1.01946804	      5.46735924	      0.07964373	     -7.60746414	    -24.94707012	      0.22013790	     -5.45890549	      3.32485848	     -8.80511289	    -11.26723404	     48.84026806	     90.00000001	      0.00000000	      0.00000000	     15.91715485	    -12.30870141	     34.71272367	     53.87631594	     90.00000001	      0.00000000	      0.00000000
      2.38000000	      5.53786273	      5.39637248	      8.90625574	     -0.43406934	      0.87824578	     -0.12465807	      0.34542365	     -7.06558683	    -31.04491843	     28.81759724	     -4.09248115	      0.50296195	     25.39381769	     38.20955456	     -7.60082779	     25.39987345	      6.96941406	      6.05519349	     57.42486052	     -4.10877263	      1.00225289	      5.76924185	      1.33959646	     -7.60082779	    -25.04811581	      0.11170863	     -5.23132308	      3.22981988	     -9.04569149	    -10.41422977	     49.07851177	     90.00000001	      0.00000000	      0.00000000	     15.83355591	    -12.19964472	     34.13526855	     53.89783199	     90.00000001	      0.00000000	      0.00000000
      2.39000000	      5.42925328	      5.26063347	      8.80304476	     -0.43127454	      0.87784680	     -0.12480504	      0.31555756	     -6.92929314	    -30.86957119	     28.88141490	     -4.01402074	      0.50407578	     25.31033882	     37.89396602	     -7.59969299	     25.94106336	      6.50901835	      5.43858089	     56.41042475	     -3.98687724	      0.98454764	      5.93388797	      1.29029739	     -7.59969299	    -24.95836374	      0.17486600	     -5.12454585	      3.20647626	     -9.00152985	    -10.34290095	     49.17050413	     90.00000001	      0.00000000	      0.00000000	     15.85521359	    -12.26165807	     34.00513189	     53.97876050	     90.00000001	      0.00000000	      0.00000000
      2.40000000	      5.57172455	      5.38144228	      8.37868950	     -0.42800036	      0.87779018	     -0.12491837	     -0.02614877	     -6.99225796	    -30.47294025	     28.81663820	     -4.11554595	      0.50294522	     25.77251006	     38.16738425	     -7.59656502	     26.05798839	      6.32736160	      2.86148288	     54.97521751	     -5.49628286	      0.95949855	      6.32130680	      1.93764056	     -7.59656502	    -25.11794773	     -0.09200782	     -4.71668664	      3.14508352	     -9.09078937	    -10.00348920	     49.18219185	     90.00000001	      0.00000000	      0.00000000	     15.76525098	    -12.19729344	     33.74578824	     53.94148501	     90.00000001	      0.00000000	      0.00000000
      2.41000000	      5.62794994	      5.32211531	      8.10390227	     -0.42478537	      0.87751301	     -0.12506178	     -0.27500347	     -6.87992060	    -30.26372461	     28.74988547	     -4.17832323	      0.50178016	     25.93612727	     38.18915588	     -7.58914783	     26.29450102	      5.88555701	      0.97094989	     53.53808310	     -6.32738463	      0.93441583	      7.07392661	      4.23886179	     -7.58914783	    -25.15381289	     -0.12874065	     -4.44801453	      3.08428647	     -9.24210058	     -9.34310686	     49.31494939	     90.00000001	      0.00000000	      0.00000000	     15.66652627	    -12.14066973	     33.27486869	     53.91652843	     90.00000001	      0.00000000	      0.00000000
      2.42000000	      5.66660838	      5.28886087	      7.81576388	     -0.42157764	      0.87721964	     -0.12531197	     -0.51056489	     -6.84941124	    -30.02164632	     28.74545704	     -4.15959640	      0.50170287	     26.18259020	     38.18623403	     -7.58391360	     26.47368758	      5.53130140	     -0.64088853	     51.97459974	     -6.93410908	      0.90712789	      7.30234136	      5.49273039	     -7.58391360	    -25.19489016	     -0.20226601	     -4.17011927	      3.04896570	     -9.31666393	     -8.99782549	     49.36632878	     90.00000001	      0.00000000	      0.00000000	     15.58909262	    -12.09694821	     33.00153706	     53.88768641	     90.00000001	      0.00000000	      0.00000000
      2.43000000	      5.69074698	      5.23917827	      7.55086874	     -0.41827108	      0.87685823	     -0.12565782	     -0.73635666	     -6.78499588	    -29.83426219	     28.69790664	     -4.21343356	      0.50087296	     26.36537313	     38.21995663	     -7.57842312	     26.60571715	      5.17562528	     -1.96290669	     50.34261634	     -7.27064316	      0.87864441	      7.71018331	      6.95940621	     -7.57842312	    -25.19293505	     -0.24782888	     -3.93204659	      3.02005430	     -9.39740311	     -8.64533134	     49.41367205	     90.00000001	      0.00000000	      0.00000000	     15.51871196	    -12.05446899	     32.71824696	     53.84606626	     90.00000001	      0.00000000	      0.00000000
